<?xml version="1.0" encoding="UTF-8" standalone="no"?>
<!-- Created with Inkscape (http://www.inkscape.org/) -->

<svg
   xmlns:dc="http://purl.org/dc/elements/1.1/"
   xmlns:cc="http://creativecommons.org/ns#"
   xmlns:rdf="http://www.w3.org/1999/02/22-rdf-syntax-ns#"
   xmlns:svg="http://www.w3.org/2000/svg"
   xmlns="http://www.w3.org/2000/svg"
   xmlns:sodipodi="http://sodipodi.sourceforge.net/DTD/sodipodi-0.dtd"
   xmlns:inkscape="http://www.inkscape.org/namespaces/inkscape"
   width="177.37334mm"
   height="56.331413mm"
   viewBox="0 0 628.48821 199.5995"
   id="svg2"
   version="1.1"
   inkscape:version="0.91 r13725"
   sodipodi:docname="heading.svg">
  <defs
     id="defs4" />
  <sodipodi:namedview
     id="base"
     pagecolor="#ffffff"
     bordercolor="#666666"
     borderopacity="1.0"
     inkscape:pageopacity="0.0"
     inkscape:pageshadow="2"
     inkscape:zoom="2.057805"
     inkscape:cx="243.87045"
     inkscape:cy="113.00899"
     inkscape:document-units="px"
     inkscape:current-layer="text3344"
     showgrid="false"
     fit-margin-top="1"
     fit-margin-left="1"
     fit-margin-bottom="1"
     fit-margin-right="1"
     inkscape:window-width="1241"
     inkscape:window-height="755"
     inkscape:window-x="39"
     inkscape:window-y="1"
     inkscape:window-maximized="1" />
  <metadata
     id="metadata7">
    <rdf:RDF>
      <cc:Work
         rdf:about="">
        <dc:format>image/svg+xml</dc:format>
        <dc:type
           rdf:resource="http://purl.org/dc/dcmitype/StillImage" />
        <dc:title />
      </cc:Work>
    </rdf:RDF>
  </metadata>
  <g
     inkscape:label="Layer 1"
     inkscape:groupmode="layer"
     id="layer1"
     transform="translate(-113.83969,-43.118895)">
    <flowRoot
       xml:space="preserve"
       id="flowRoot3336"
       style="font-style:normal;font-weight:normal;font-size:90px;line-height:125%;font-family:sans-serif;letter-spacing:0px;word-spacing:0px;fill:#000000;fill-opacity:1;stroke:none;stroke-width:1px;stroke-linecap:butt;stroke-linejoin:miter;stroke-opacity:1"><flowRegion
         id="flowRegion3338"><rect
           id="rect3340"
           width="585.71429"
           height="254.28572"
           x="60"
           y="58.076492"
           style="font-size:90px" /></flowRegion><flowPara
         id="flowPara3342" /></flowRoot>    <g
       style="font-style:normal;font-weight:normal;font-size:71.96743774px;line-height:75.99999905%;font-family:sans-serif;letter-spacing:0px;word-spacing:0px;fill:#000000;fill-opacity:1;stroke:none;stroke-width:1px;stroke-linecap:butt;stroke-linejoin:miter;stroke-opacity:1"
       id="text3344">
      <path
         d="m 142.12252,114.67143 17.00231,0 c 11.33487,0 19.91699,4.69587 19.91699,15.38304 0,10.68716 -8.58212,14.5734 -19.91699,14.5734 l -17.00231,0 0,-29.95644 z m 0,-19.431209 0,-23.479376 13.76377,0 c 11.33487,0 16.67846,3.886242 16.67846,11.334871 0,7.610556 -5.34359,12.144505 -16.67846,12.144505 l -13.76377,0 z m -22.66974,-43.720217 0,113.348706 39.67205,0 c 23.47937,0 42.58673,-9.87753 42.58673,-34.00461 0,-13.43992 -8.58212,-22.18396 -20.5647,-26.87984 9.22983,-4.048164 14.08763,-11.334867 14.08763,-21.698178 0,-19.26928 -14.24955,-30.766078 -39.3482,-30.766078 l -36.43351,0 z"
         style="font-style:normal;font-variant:normal;font-weight:bold;font-stretch:normal;font-size:161.92672729px;font-family:'Renner*';-inkscape-font-specification:'Renner* Bold';text-align:center;text-anchor:middle;fill:#da3500;fill-opacity:1"
         id="path3341" />
      <path
         d="m 217.63351,51.520004 0,76.105566 c 0,28.98488 19.91699,42.10095 43.39636,42.10095 23.47938,0 43.39637,-13.11607 43.39637,-42.10095 l 0,-76.105566 -22.66975,0 0,76.105566 c 0,12.30643 -6.15321,21.8601 -20.72662,21.8601 -14.5734,0 -20.72662,-9.55367 -20.72662,-21.8601 l 0,-76.105566 -22.66974,0 z"
         style="font-style:normal;font-variant:normal;font-weight:bold;font-stretch:normal;font-size:161.92672729px;font-family:'Renner*';-inkscape-font-specification:'Renner* Bold';text-align:center;text-anchor:middle;fill:#da3500;fill-opacity:1"
         id="path3343" />
      <path
         d="m 347.69357,71.760845 20.24084,0 c 22.34589,0 37.24315,11.658725 37.24315,36.433515 0,24.77479 -14.89726,36.43351 -37.24315,36.43351 l -20.24084,0 0,-72.867025 z m -22.66974,-20.240841 0,113.348706 42.91058,0 c 36.27158,0 59.91289,-21.2124 59.91289,-56.67435 0,-35.461954 -23.64131,-56.674356 -59.91289,-56.674356 l -42.91058,0 z"
         style="font-style:normal;font-variant:normal;font-weight:bold;font-stretch:normal;font-size:161.92672729px;font-family:'Renner*';-inkscape-font-specification:'Renner* Bold';text-align:center;text-anchor:middle;fill:#da3500;fill-opacity:1"
         id="path3345" />
      <path
         d="m 503.8896,121.95813 32.22342,0 c -3.88624,15.86882 -14.89726,27.52754 -37.08122,27.52754 -22.34589,0 -40.48168,-16.51652 -40.48168,-41.29131 0,-24.77479 18.13579,-41.291317 40.48168,-41.291317 14.08762,0 28.33718,6.800923 35.46195,18.783501 l 14.73533,-13.925699 c -9.7156,-15.706892 -26.0702,-25.098643 -50.19728,-25.098643 -36.27159,0 -63.15143,24.450936 -63.15143,61.532158 0,37.08122 26.87984,61.53216 63.15143,61.53216 37.89085,0 59.91289,-26.07021 59.91289,-63.15143 l 0,-4.8578 -55.05509,0 0,20.24084 z"
         style="font-style:normal;font-variant:normal;font-weight:bold;font-stretch:normal;font-size:161.92672729px;font-family:'Renner*';-inkscape-font-specification:'Renner* Bold';text-align:center;text-anchor:middle;fill:#da3500;fill-opacity:1"
         id="path3347" />
      <path
         d="m 596.27639,116.2907 47.76839,0 0,-19.431212 -47.76839,0 0,-25.098643 51.00692,0 0,-20.240841 -73.67666,0 0,113.348706 73.67666,0 0,-20.24084 -51.00692,0 0,-28.33717 z"
         style="font-style:normal;font-variant:normal;font-weight:bold;font-stretch:normal;font-size:161.92672729px;font-family:'Renner*';-inkscape-font-specification:'Renner* Bold';text-align:center;text-anchor:middle;fill:#da3500;fill-opacity:1"
         id="path3349" />
      <path
         d="m 657.82122,71.760845 29.14681,0 0,93.107865 22.66974,0 0,-93.107865 29.14682,0 0,-20.240841 -80.96337,0 0,20.240841 z"
         style="font-style:normal;font-variant:normal;font-weight:bold;font-stretch:normal;font-size:161.92672729px;font-family:'Renner*';-inkscape-font-specification:'Renner* Bold';text-align:center;text-anchor:middle;fill:#da3500;fill-opacity:1"
         id="path3351" />
      <path
         d="m 117.383,186.27902 0,50.37721 29.86649,0 0,-8.99593 -19.79105,0 0,-41.38128 -10.07544,0 z"
         style="font-style:normal;font-variant:normal;font-weight:bold;font-stretch:normal;line-height:75.99999905%;font-family:'Renner*';-inkscape-font-specification:'Renner* Bold';text-align:center;text-anchor:middle;fill:#575757;fill-opacity:1"
         id="path3353" />
      <path
         d="m 151.96111,186.27902 0,50.37721 10.07544,0 0,-50.37721 -10.07544,0 z"
         style="font-style:normal;font-variant:normal;font-weight:bold;font-stretch:normal;line-height:75.99999905%;font-family:'Renner*';-inkscape-font-specification:'Renner* Bold';text-align:center;text-anchor:middle;fill:#575757;fill-opacity:1"
         id="path3355" />
      <path
         d="m 171.35858,186.27902 0,50.37721 10.07544,0 0,-23.53335 20.15088,23.53335 12.66627,0 -22.88564,-26.77189 21.80613,-23.60532 -11.9466,0 -19.79104,21.4463 0,-21.4463 -10.07544,0 z"
         style="font-style:normal;font-variant:normal;font-weight:bold;font-stretch:normal;line-height:75.99999905%;font-family:'Renner*';-inkscape-font-specification:'Renner* Bold';text-align:center;text-anchor:middle;fill:#575757;fill-opacity:1"
         id="path3357" />
      <path
         d="m 228.24096,215.066 21.2304,0 0,-8.63609 -21.2304,0 0,-11.15496 22.66975,0 0,-8.99593 -32.74519,0 0,50.37721 32.74519,0 0,-8.99593 -22.66975,0 0,-12.5943 z"
         style="font-style:normal;font-variant:normal;font-weight:bold;font-stretch:normal;line-height:75.99999905%;font-family:'Renner*';-inkscape-font-specification:'Renner* Bold';text-align:center;text-anchor:middle;fill:#575757;fill-opacity:1"
         id="path3359" />
      <path
         d="m 309.26618,186.27902 -11.94659,20.43876 -11.44282,-20.43876 -10.43528,0 17.12825,29.07485 0,21.30236 9.7156,0 0,-21.8781 17.41612,-28.49911 -10.43528,0 z"
         style="font-style:normal;font-variant:normal;font-weight:bold;font-stretch:normal;line-height:75.99999905%;font-family:'Renner*';-inkscape-font-specification:'Renner* Bold';text-align:center;text-anchor:middle;fill:#575757;fill-opacity:1"
         id="path3361" />
      <path
         d="m 320.14563,211.46763 c 0,16.1207 12.30643,27.34762 28.0673,27.34762 15.76087,0 28.0673,-11.22692 28.0673,-27.34762 0,-16.12071 -12.66627,-27.34763 -28.0673,-27.34763 -15.0412,0 -28.0673,11.22692 -28.0673,27.34763 z m 10.29134,0 c 0,-11.01102 7.84445,-18.1358 17.77596,-18.1358 10.29134,0 17.77596,7.12478 17.77596,18.1358 0,11.01101 -7.84445,18.13579 -17.77596,18.13579 -9.93151,0 -17.77596,-7.12478 -17.77596,-18.13579 z"
         style="font-style:normal;font-variant:normal;font-weight:bold;font-stretch:normal;line-height:75.99999905%;font-family:'Renner*';-inkscape-font-specification:'Renner* Bold';text-align:center;text-anchor:middle;fill:#575757;fill-opacity:1"
         id="path3363" />
      <path
         d="m 382.40308,186.27902 0,33.8247 c 0,12.88217 8.85199,18.71153 19.28727,18.71153 10.43528,0 19.28727,-5.82936 19.28727,-18.71153 l 0,-33.8247 -10.07544,0 0,33.8247 c 0,5.46952 -2.73476,9.7156 -9.21183,9.7156 -6.47707,0 -9.21183,-4.24608 -9.21183,-9.7156 l 0,-33.8247 -10.07544,0 z"
         style="font-style:normal;font-variant:normal;font-weight:bold;font-stretch:normal;line-height:75.99999905%;font-family:'Renner*';-inkscape-font-specification:'Renner* Bold';text-align:center;text-anchor:middle;fill:#575757;fill-opacity:1"
         id="path3365" />
      <path
         d="m 491.7205,209.02073 3.95821,27.6355 10.43527,0 -8.27625,-54.33542 -20.58269,33.68077 -21.15843,-33.68077 -7.55658,54.33542 10.43528,0 3.45444,-27.70746 14.89726,23.02958 14.39349,-22.95762 z"
         style="font-style:normal;font-variant:normal;font-weight:bold;font-stretch:normal;line-height:75.99999905%;font-family:'Renner*';-inkscape-font-specification:'Renner* Bold';text-align:center;text-anchor:middle;fill:#575757;fill-opacity:1"
         id="path3367" />
      <path
         d="m 522.29542,215.066 21.23039,0 0,-8.63609 -21.23039,0 0,-11.15496 22.66974,0 0,-8.99593 -32.74519,0 0,50.37721 32.74519,0 0,-8.99593 -22.66974,0 0,-12.5943 z"
         style="font-style:normal;font-variant:normal;font-weight:bold;font-stretch:normal;line-height:75.99999905%;font-family:'Renner*';-inkscape-font-specification:'Renner* Bold';text-align:center;text-anchor:middle;fill:#575757;fill-opacity:1"
         id="path3369" />
      <path
         d="m 575.91678,202.18383 6.4051,13.60184 -12.8102,0 6.4051,-13.60184 z m 0,-19.50318 -26.98779,53.97558 10.79511,0 5.7574,-12.23446 20.87056,0 5.75739,12.23446 10.79512,0 -26.98779,-53.97558 z"
         style="font-style:normal;font-variant:normal;font-weight:bold;font-stretch:normal;line-height:75.99999905%;font-family:'Renner*';-inkscape-font-specification:'Renner* Bold';text-align:center;text-anchor:middle;fill:#575757;fill-opacity:1"
         id="path3371" />
      <path
         d="m 643.58303,186.27902 0,30.44223 -36.34355,-32.96109 0,52.89607 10.07544,0 0,-30.44223 36.34355,32.96109 0,-52.89607 -10.07544,0 z"
         style="font-style:normal;font-variant:normal;font-weight:bold;font-stretch:normal;line-height:75.99999905%;font-family:'Renner*';-inkscape-font-specification:'Renner* Bold';text-align:center;text-anchor:middle;fill:#575757;fill-opacity:1"
         id="path3373" />
      <path
         d="m 684.54828,186.27902 0,50.37721 10.07544,0 0,-50.37721 -10.07544,0 z"
         style="font-style:normal;font-variant:normal;font-weight:bold;font-stretch:normal;line-height:75.99999905%;font-family:'Renner*';-inkscape-font-specification:'Renner* Bold';text-align:center;text-anchor:middle;fill:#575757;fill-opacity:1"
         id="path3375" />
      <path
         d="m 699.6277,195.27495 12.95414,0 0,41.38128 10.07544,0 0,-41.38128 12.95414,0 0,-8.99593 -35.98372,0 0,8.99593 z"
         style="font-style:normal;font-variant:normal;font-weight:bold;font-stretch:normal;line-height:75.99999905%;font-family:'Renner*';-inkscape-font-specification:'Renner* Bold';text-align:center;text-anchor:middle;fill:#575757;fill-opacity:1"
         id="path3377" />
    </g>
  </g>
</svg>
